<svg xmlns="http://www.w3.org/2000/svg" width="800" height="600" viewBox="0 0 800 600" fill="none">
  <rect width="800" height="600" fill="#f9fafb"/>
  <rect x="50" y="50" width="700" height="500" fill="#f3f4f6" rx="8"/>

  <!-- Building silhouette -->
  <rect x="200" y="300" width="120" height="200" fill="#d1d5db"/>
  <rect x="350" y="250" width="140" height="250" fill="#9ca3af"/>
  <rect x="520" y="320" width="100" height="180" fill="#d1d5db"/>

  <!-- Windows -->
  <rect x="220" y="320" width="20" height="20" fill="#6b7280"/>
  <rect x="260" y="320" width="20" height="20" fill="#6b7280"/>
  <rect x="220" y="360" width="20" height="20" fill="#6b7280"/>
  <rect x="260" y="360" width="20" height="20" fill="#6b7280"/>

  <rect x="370" y="280" width="20" height="20" fill="#374151"/>
  <rect x="410" y="280" width="20" height="20" fill="#374151"/>
  <rect x="450" y="280" width="20" height="20" fill="#374151"/>
  <rect x="370" y="320" width="20" height="20" fill="#374151"/>
  <rect x="410" y="320" width="20" height="20" fill="#374151"/>
  <rect x="450" y="320" width="20" height="20" fill="#374151"/>

  <!-- Vendor icon -->
  <g transform="translate(350, 150)">
    <circle cx="50" cy="50" r="60" fill="#10b981" opacity="0.1"/>
    <rect x="30" y="30" width="40" height="40" fill="#10b981" opacity="0.6" rx="4"/>
    <rect x="35" y="35" width="30" height="4" fill="#047857"/>
    <rect x="35" y="45" width="20" height="4" fill="#047857"/>
    <rect x="35" y="55" width="25" height="4" fill="#047857"/>
  </g>

  <!-- Text -->
  <text x="400" y="520" text-anchor="middle" fill="#6b7280" font-family="system-ui, sans-serif" font-size="18" font-weight="500">
    Vendor Profile
  </text>
</svg>